<svg width="32" height="32" viewBox="0 0 32 32" fill="none" xmlns="http://www.w3.org/2000/svg">
<path d="M22.6667 22.6533C20.8667 22.6533 19.7334 23.2133 18.7334 23.72C17.8667 24.16 17.1601 24.52 16.0001 24.52C14.8001 24.52 14.1334 24.1867 13.2667 23.72C12.2667 23.2133 11.1734 22.6533 9.33341 22.6533C7.49341 22.6533 6.40008 23.2133 5.40008 23.72C4.82675 24.0133 4.32008 24.2667 3.70675 24.4133C3.10675 24.5467 2.66675 25.0267 2.66675 25.6267V25.76C2.66675 26.56 3.41341 27.1333 4.18675 26.9733C5.17341 26.7733 5.92008 26.4 6.60008 26.0533C7.46675 25.6133 8.16008 25.2533 9.33341 25.2533C10.5067 25.2533 11.2001 25.5867 12.0667 26.0533C13.0667 26.56 14.1601 27.12 16.0001 27.12C17.8401 27.12 18.9334 26.56 19.9334 26.0533C20.8001 25.6133 21.5067 25.2533 22.6667 25.2533C23.8667 25.2533 24.5334 25.5867 25.4001 26.0533C26.0934 26.4 26.8401 26.7867 27.8401 26.9867C28.0202 27.0218 28.2059 27.017 28.3839 26.9725C28.562 26.9281 28.7281 26.845 28.8705 26.7293C29.013 26.6136 29.1283 26.4679 29.2082 26.3028C29.2882 26.1376 29.331 25.9568 29.3334 25.7733V25.6533C29.3334 25.04 28.8801 24.56 28.2801 24.4267C27.6667 24.2933 27.1734 24.04 26.6001 23.7333C25.6001 23.2133 24.4667 22.6533 22.6667 22.6533V22.6533ZM22.6667 16.72C20.8667 16.72 19.7334 17.2933 18.7334 17.7867C17.8667 18.2133 17.1601 18.5867 16.0001 18.5867C14.8001 18.5867 14.1334 18.2533 13.2667 17.7867C12.2667 17.28 11.1734 16.72 9.33341 16.72C7.49341 16.72 6.40008 17.2933 5.40008 17.7867C4.82675 18.0667 4.32008 18.3333 3.69341 18.48C3.10675 18.6133 2.66675 19.0933 2.66675 19.6933V19.8267C2.66682 20.011 2.70798 20.1929 2.78722 20.3593C2.86645 20.5257 2.98178 20.6723 3.12481 20.7885C3.26784 20.9048 3.43498 20.9876 3.61406 21.0311C3.79315 21.0746 3.97968 21.0777 4.16008 21.04C5.16008 20.84 5.90675 20.4533 6.60008 20.12C7.46675 19.6533 8.13341 19.32 9.33341 19.32C10.5334 19.32 11.2001 19.6533 12.0667 20.12C13.0667 20.6267 14.1601 21.1867 16.0001 21.1867C17.8401 21.1867 18.9334 20.6133 19.9334 20.12C20.8001 19.6533 21.4667 19.32 22.6667 19.32C23.8667 19.32 24.5334 19.6533 25.4001 20.12C26.0934 20.4667 26.8401 20.8533 27.8401 21.0533C28.0213 21.0887 28.2081 21.0836 28.3871 21.0383C28.5661 20.9931 28.7329 20.9089 28.8756 20.7917C29.0183 20.6745 29.1333 20.5272 29.2125 20.3604C29.2916 20.1936 29.3329 20.0113 29.3334 19.8267V19.7067C29.3334 19.0933 28.8801 18.6133 28.2801 18.48C27.6667 18.3467 27.1734 18.0933 26.6001 17.7867C25.6001 17.28 24.4667 16.72 22.6667 16.72V16.72ZM26.6001 5.94667C25.6001 5.44 24.4934 4.88 22.6667 4.88C20.8401 4.88 19.7334 5.44 18.7334 5.94667C17.8667 6.37334 17.1601 6.74667 16.0001 6.74667C14.8001 6.74667 14.1334 6.41334 13.2667 5.94667C12.2667 5.45334 11.1734 4.88 9.33341 4.88C7.49341 4.88 6.40008 5.44 5.40008 5.94667C4.82675 6.24 4.32008 6.49334 3.70675 6.64C3.10675 6.77334 2.66675 7.25334 2.66675 7.85334V7.94667C2.66675 8.74667 3.38675 9.33334 4.16008 9.17334C5.16008 8.97334 5.90675 8.58667 6.60008 8.25334C7.46675 7.81334 8.16008 7.45334 9.33341 7.45334C10.5067 7.45334 11.2001 7.78667 12.0667 8.25334C13.0667 8.76 14.1601 9.32 16.0001 9.32C17.8401 9.32 18.9334 8.74667 19.9334 8.25334C20.8001 7.82667 21.5067 7.45334 22.6667 7.45334C23.8667 7.45334 24.5334 7.78667 25.4001 8.25334C26.0934 8.6 26.8401 8.98667 27.8401 9.18667C28.0213 9.22203 28.2081 9.21691 28.3871 9.17168C28.5661 9.12644 28.7329 9.04222 28.8756 8.92502C29.0183 8.80782 29.1333 8.66054 29.2125 8.49372C29.2916 8.32689 29.3329 8.14465 29.3334 7.96V7.84C29.3334 7.22667 28.8801 6.74667 28.2801 6.61334C27.6667 6.48 27.1734 6.24 26.6001 5.94667V5.94667ZM22.6667 10.7867C20.8667 10.7867 19.7334 11.36 18.7334 11.8533C17.8667 12.32 17.2001 12.6533 16.0001 12.6533C14.8001 12.6533 14.1334 12.32 13.2667 11.8533C12.2667 11.3467 11.1734 10.7867 9.33341 10.7867C7.49341 10.7867 6.40008 11.36 5.40008 11.8533C4.82675 12.16 4.33341 12.4133 3.72008 12.5467C3.12008 12.68 2.66675 13.16 2.66675 13.7733V13.8933C2.66682 14.0776 2.70798 14.2596 2.78722 14.426C2.86645 14.5924 2.98178 14.739 3.12481 14.8552C3.26784 14.9714 3.43498 15.0543 3.61406 15.0978C3.79315 15.1413 3.97968 15.1443 4.16008 15.1067C5.16008 14.9067 5.90675 14.52 6.60008 14.1867C7.46675 13.76 8.17341 13.3867 9.33341 13.3867C10.4934 13.3867 11.2001 13.72 12.0667 14.1867C13.0667 14.6933 14.1601 15.2533 16.0001 15.2533C17.8401 15.2533 18.9334 14.68 19.9334 14.1867C20.8001 13.76 21.5067 13.3867 22.6667 13.3867C23.8667 13.3867 24.5334 13.72 25.4001 14.1867C26.0934 14.5333 26.8401 14.92 27.8401 15.12C28.0202 15.1552 28.2059 15.1503 28.3839 15.1059C28.562 15.0614 28.7281 14.9783 28.8705 14.8626C29.013 14.7469 29.1283 14.6013 29.2082 14.4361C29.2882 14.2709 29.331 14.0902 29.3334 13.9067V13.7867C29.3334 13.1733 28.8801 12.6933 28.2801 12.56C27.6667 12.4267 27.1734 12.1733 26.6001 11.8667C25.6001 11.3467 24.4667 10.7867 22.6667 10.7867V10.7867Z" fill="url(#paint0_linear_149_573)"/>
<defs>
<linearGradient id="paint0_linear_149_573" x1="16.0001" y1="4.88" x2="16.0001" y2="27.12" gradientUnits="userSpaceOnUse">
<stop stop-color="#FFBF00"/>
<stop offset="1" stop-color="#F2A50C"/>
</linearGradient>
</defs>
</svg>
