<svg width="32" height="32" viewBox="0 0 32 32" fill="none" xmlns="http://www.w3.org/2000/svg">
<path d="M15.9999 10.6666C13.0533 10.6666 10.6666 13.0533 10.6666 16C10.6666 18.9466 13.0533 21.3333 15.9999 21.3333C18.9466 21.3333 21.3333 18.9466 21.3333 16C21.3333 13.0533 18.9466 10.6666 15.9999 10.6666ZM27.9199 14.6666C27.6179 11.9628 26.4055 9.44203 24.4817 7.51824C22.5579 5.59445 20.0371 4.382 17.3333 4.07998V2.66665C17.3333 1.93331 16.7333 1.33331 15.9999 1.33331C15.2666 1.33331 14.6666 1.93331 14.6666 2.66665V4.07998C11.9627 4.382 9.44197 5.59445 7.51818 7.51824C5.59439 9.44203 4.38193 11.9628 4.07992 14.6666H2.66659C1.93325 14.6666 1.33325 15.2666 1.33325 16C1.33325 16.7333 1.93325 17.3333 2.66659 17.3333H4.07992C4.38193 20.0372 5.59439 22.5579 7.51818 24.4817C9.44197 26.4055 11.9627 27.618 14.6666 27.92V29.3333C14.6666 30.0666 15.2666 30.6666 15.9999 30.6666C16.7333 30.6666 17.3333 30.0666 17.3333 29.3333V27.92C20.0371 27.618 22.5579 26.4055 24.4817 24.4817C26.4055 22.5579 27.6179 20.0372 27.9199 17.3333H29.3333C30.0666 17.3333 30.6666 16.7333 30.6666 16C30.6666 15.2666 30.0666 14.6666 29.3333 14.6666H27.9199V14.6666ZM15.9999 25.3333C10.8399 25.3333 6.66659 21.16 6.66659 16C6.66659 10.84 10.8399 6.66665 15.9999 6.66665C21.1599 6.66665 25.3333 10.84 25.3333 16C25.3333 21.16 21.1599 25.3333 15.9999 25.3333Z" fill="url(#paint0_linear_149_577)"/>
<defs>
<linearGradient id="paint0_linear_149_577" x1="15.9999" y1="1.33331" x2="15.9999" y2="30.6666" gradientUnits="userSpaceOnUse">
<stop stop-color="#FFBF00"/>
<stop offset="1" stop-color="#F2A50C"/>
</linearGradient>
</defs>
</svg>
