<svg width="18" height="10" viewBox="0 0 18 10" fill="none" xmlns="http://www.w3.org/2000/svg">
<path fill-rule="evenodd" clip-rule="evenodd" d="M11.6822 0.245043C12.0331 -0.0809261 12.603 -0.0817897 12.955 0.243114L17.7354 4.65487C17.9113 4.81723 18.0069 5.03968 17.9996 5.26957C17.9923 5.49945 17.8827 5.71632 17.6968 5.86883L12.9165 9.7904C12.5445 10.0956 11.9757 10.0638 11.646 9.71928C11.3164 9.3748 11.3508 8.84812 11.7228 8.54292L14.727 6.07843H0.9C0.402944 6.07843 0 5.70533 0 5.24509C0 4.78486 0.402944 4.41176 0.9 4.41176H14.9222L11.6843 1.42355C11.3323 1.09865 11.3313 0.571011 11.6822 0.245043Z" fill="#332200"/>
</svg>
