<svg width="32" height="32" viewBox="0 0 32 32" fill="none" xmlns="http://www.w3.org/2000/svg">
<path d="M8.06676 10.7333C6.32114 12.4792 5.33827 14.8456 5.33327 17.3145C5.32827 19.7834 6.30156 22.1537 8.0401 23.9067C10.0001 19.3733 13.4934 15.5867 17.8534 13.3333C14.0902 16.5176 11.5499 20.9101 10.6668 25.76C14.1334 27.4 18.4001 26.8 21.2668 23.9333C25.2534 19.9467 26.3734 9.08 26.6134 6.09333C26.6218 5.99843 26.6092 5.90286 26.5767 5.81332C26.5441 5.72379 26.4923 5.64249 26.425 5.57512C26.3576 5.50776 26.2763 5.45597 26.1868 5.42342C26.0972 5.39086 26.0017 5.37831 25.9068 5.38667C22.9201 5.62667 12.0534 6.74667 8.06676 10.7333V10.7333Z" fill="url(#paint0_linear_149_568)"/>
<defs>
<linearGradient id="paint0_linear_149_568" x1="15.9746" y1="5.38416" x2="15.9746" y2="26.6592" gradientUnits="userSpaceOnUse">
<stop stop-color="#FFBF00"/>
<stop offset="1" stop-color="#F2A50C"/>
</linearGradient>
</defs>
</svg>
