<svg width="32" height="32" viewBox="0 0 32 32" fill="none" xmlns="http://www.w3.org/2000/svg">
<circle cx="16" cy="16" r="16" fill="white"/>
<path d="M23.5833 14.125H22.695L20.8533 8.5675C20.7009 8.10925 20.4239 7.71327 20.0597 7.43298C19.6955 7.15269 19.2617 7.00157 18.8167 7H17.0833C16.4875 7 16 7.53437 16 8.1875C16 8.84063 16.4875 9.375 17.0833 9.375H18.8167L20.3983 14.125H15.1875L14.7975 12.9375H14.895C15.4908 12.9375 15.9783 12.4031 15.9783 11.75C15.9783 11.0969 15.4908 10.5625 14.895 10.5625H11.6667C11.0708 10.5625 10.5833 11.0969 10.5833 11.75C10.5833 12.4031 11.0708 12.9375 11.6667 12.9375H12.4792L14.4508 18.875H13.725C13.2483 16.2269 11.2225 14.2675 8.6875 14.1369C5.65417 13.9706 3 16.7375 3 20.0625C3 23.3875 5.38333 26 8.41667 26C11.0817 26 13.2375 23.9931 13.725 21.25H18.275C18.7517 23.8981 20.7775 25.8575 23.3125 25.9881C26.3458 26.1425 29 23.3875 29 20.0506C29 16.7375 26.6167 14.125 23.5833 14.125ZM9.5 21.25H11.4717C11.0167 22.7106 9.73833 23.72 8.2 23.6131C6.58583 23.5062 5.2425 22.01 5.16667 20.2288C5.09083 18.1506 6.5425 16.5 8.41667 16.5C9.8575 16.5 11.0383 17.4856 11.4717 18.875H9.5C8.90417 18.875 8.41667 19.4094 8.41667 20.0625C8.41667 20.7156 8.90417 21.25 9.5 21.25ZM18.275 18.875H16.7583L15.9675 16.5H19.25C18.7733 17.1887 18.4267 17.9844 18.275 18.875ZM23.4533 23.625C21.785 23.5538 20.3767 21.9981 20.3333 20.1575C20.3117 19.0175 20.7558 18.02 21.4708 17.355L22.1425 19.3738C22.3483 19.9913 22.9658 20.3119 23.5292 20.0863C24.0925 19.8606 24.385 19.1837 24.1792 18.5662L23.4967 16.5119L23.5075 16.5C23.9418 16.4838 24.3747 16.5642 24.7799 16.7364C25.1851 16.9086 25.5543 17.1691 25.8651 17.502C26.1759 17.835 26.422 18.2335 26.5884 18.6736C26.7548 19.1137 26.8381 19.5861 26.8333 20.0625C26.8333 22.105 25.3383 23.6962 23.4533 23.625Z" fill="url(#paint0_linear_206_141)"/>
<defs>
<linearGradient id="paint0_linear_206_141" x1="16" y1="7" x2="16" y2="26" gradientUnits="userSpaceOnUse">
<stop stop-color="#FFB60D"/>
<stop offset="1" stop-color="#E59317"/>
</linearGradient>
</defs>
</svg>
